<svg viewBox="0 0 24 24" xmlns="http://www.w3.org/2000/svg"><path d="M12 0C5.373 0 0 5.373 0 12s5.373 12 12 12 12-5.373 12-12S18.627 0 12 0zm-1.243 16.846a5.082 5.082 0 01-3.532-1.332 4.993 4.993 0 01-1.474-3.49c-.013-1.327.5-2.605 1.427-3.556a5.07 5.07 0 013.532-1.487h.094c1.12.014 2.187.442 3.003 1.205l-1.59 1.69a2.574 2.574 0 00-1.46-.485 2.578 2.578 0 00-1.807.752 2.514 2.514 0 00-.726 1.847c.005.696.285 1.362.78 1.856a2.578 2.578 0 001.86.754c.586 0 1.146-.22 1.578-.619l1.537 1.727a5.098 5.098 0 01-3.222 1.138z" fill="#0052FF"/></svg>
