<svg xmlns="http://www.w3.org/2000/svg" viewBox="0 0 512 512" width="512" height="512">
  <path fill="#FFDB33" fill-rule="evenodd" d="
    M 358.4 26 c 53.765 0 80.6476 0 101.1831 10.4634 a 96 96 0 0 1 41.9535 41.9535 c 10.4634 20.5355 10.4634 47.418 10.4634 101.1831 L 512 332.4 c 0 53.765 0 80.6476 -10.4634 101.1831 a 96 96 0 0 1 -41.9535 41.9535 c -20.5355 10.4634 -47.418 10.4634 -101.1831 10.4634 L 153.6 486 c -53.765 0 -80.6476 0 -101.1831 -10.4634 a 96 96 0 0 1 -41.9535 -41.9535 c -10.4634 -20.5355 -10.4634 -47.418 -10.4634 -101.1831 L 0 179.6 c 0 -53.765 0 -80.6476 10.4634 -101.1831 a 96 96 0 0 1 41.9535 -41.9535 c 20.5355 -10.4634 47.418 -10.4634 101.1831 -10.4634 Z
    M 350.8 231 c 31.923 0 47.8845 0 60.0775 6.2126 a 57 57 0 0 1 24.9099 24.9099 c 6.2126 12.193 6.2126 28.1545 6.2126 60.0775 L 442 333.8 c 0 31.923 0 47.8845 -6.2126 60.0775 a 57 57 0 0 1 -24.9099 24.9099 c -12.193 6.2126 -28.1545 6.2126 -60.0775 6.2126 L 318.2 425 c -31.923 0 -47.8845 0 -60.0775 -6.2126 a 57 57 0 0 1 -24.9099 -24.9099 c -6.2126 -12.193 -6.2126 -28.1545 -6.2126 -60.0775 L 227 322.2 c 0 -31.923 0 -47.8845 6.2126 -60.0775 a 57 57 0 0 1 24.9099 -24.9099 c 12.193 -6.2126 28.1545 -6.2126 60.0775 -6.2126 Z
  "/>
</svg>
