<svg viewBox="0 0 50 50" xmlns="http://www.w3.org/2000/svg">
 <g transform="translate(3.7,0)">
  <path fill="#F96B13" d="M0,12.5v25L21.3,50v-6.2l-16-9.4V15.6L0,12.5z"/>
  <path fill="#CC4E00" d="M37.3,15.6v25l5.3-3.1v-25L37.3,15.6z"/>
  <path fill="#FFCA73" d="M16,3.1l21.3,12.5l5.3-3.1L21.3,0L16,3.1z"/>
  <path fill="#FFCA73" d="M0,12.5l5.3,3.1l5.3-3.1L5.3,9.4L0,12.5z"/>
  <path fill="#CC4E00" d="M5.3,15.6v18.7l5.3-3.1V12.5L5.3,15.6z"/>
  <path fill="#CC4E00" d="M21.3,43.8V50l5.3-3.1v-6.3L21.3,43.8z"/>
  <path fill="#FFCA73" d="M5.3,34.4l16,9.4l5.3-3.1l-16-9.4L5.3,34.4z"/>
  <path fill="#F96B13" d="M16,3.1v6.3l16,9.4v18.8l5.3,3.1v-25L16,3.1z"/>
 </g>
</svg>
