<svg viewBox="-2.9 -19.7 135.1 135.1" xmlns="http://www.w3.org/2000/svg">
  <path fill="black" d="M3.12 58.69L3.12 58.69L22.06 57.50Q22.68 62.11 24.57 64.53L24.57 64.53Q27.64 68.44 33.35 68.44L33.35 68.44Q37.62 68.44 39.92 66.44Q42.23 64.44 42.23 61.81L42.23 61.81Q42.23 59.30 40.03 57.32L40.03 57.32Q37.84 55.35 29.84 53.59L29.84 53.59Q16.74 50.64 11.16 45.77L11.16 45.77Q5.54 40.89 5.54 33.33L5.54 33.33Q5.54 28.36 8.42 23.95Q11.29 19.53 17.07 17.00Q22.85 14.48 32.92 14.48L32.92 14.48Q45.26 14.48 51.75 19.07Q58.23 23.66 59.46 33.68L59.46 33.68L40.69 34.78Q39.95 30.43 37.55 28.45Q35.16 26.47 30.94 26.47L30.94 26.47Q27.47 26.47 25.71 27.95Q23.95 29.42 23.95 31.53L23.95 31.53Q23.95 33.07 25.40 34.30L25.40 34.30Q26.81 35.57 32.08 36.67L32.08 36.67Q45.13 39.48 50.78 42.36Q56.43 45.24 59.00 49.50Q61.57 53.76 61.57 59.04L61.57 59.04Q61.57 65.23 58.14 70.46Q54.71 75.69 48.56 78.40Q42.41 81.10 33.05 81.10L33.05 81.10Q16.61 81.10 10.28 74.77Q3.96 68.44 3.12 58.69Z"/>
  <path fill="black" d="M71.50 80L71.50 15.58L104.59 15.58Q115.40 15.58 120.78 20.72Q126.17 25.86 126.17 35.35L126.17 35.35Q126.17 45.11 120.30 50.60Q114.43 56.09 102.39 56.09L102.39 56.09L91.49 56.09L91.49 80L71.50 80ZM91.49 28.67L91.49 43.04L96.37 43.04Q102.13 43.04 104.46 41.04Q106.79 39.04 106.79 35.92L106.79 35.92Q106.79 32.89 104.77 30.78Q102.74 28.67 97.16 28.67L97.16 28.67L91.49 28.67Z"/>
</svg>
