<svg viewBox="0 0 200 200" xmlns="http://www.w3.org/2000/svg">
  <rect width="200" height="200" fill="black"/>
  <!-- S glyph (Georgia-style serif) -->
  <path d="M44.5 141.5c2.8 2.2 6.2 4 10.2 5.3 4 1.3 8.2 2 12.6 2 4.8 0 9-.7 12.6-2.2 3.6-1.5 6.4-3.6 8.4-6.4 2-2.8 3-6.1 3-9.8 0-3.4-.8-6.2-2.4-8.6-1.6-2.3-3.8-4.3-6.5-5.8-2.7-1.5-5.7-2.9-9-4.1-3.3-1.2-6.6-2.4-9.9-3.6-3.3-1.2-6.3-2.7-9-4.3-2.7-1.7-4.9-3.8-6.5-6.5-1.6-2.7-2.4-6.1-2.4-10.3 0-4.5 1.2-8.5 3.5-11.8 2.3-3.4 5.5-6 9.6-7.9 4.1-1.9 8.8-2.8 14.1-2.8 4.3 0 8.3.6 12 1.8 3.7 1.2 6.8 2.8 9.3 4.8l-3.5 6.5c-2.3-1.8-5-3.2-8.2-4.2-3.2-1-6.5-1.5-9.8-1.5-4.3 0-8 .7-11.1 2.2-3.1 1.5-5.5 3.5-7.2 6-1.7 2.5-2.5 5.4-2.5 8.5 0 3.3.8 6.1 2.4 8.3 1.6 2.2 3.8 4.1 6.5 5.6 2.7 1.5 5.7 2.8 9 4 3.3 1.2 6.6 2.4 9.9 3.7 3.3 1.3 6.3 2.8 9 4.5 2.7 1.7 4.9 3.9 6.5 6.7 1.6 2.8 2.4 6.3 2.4 10.6 0 4.6-1.2 8.7-3.7 12.2-2.5 3.5-5.9 6.2-10.3 8.2-4.4 2-9.4 2.9-15 2.9-5.3 0-10.1-.8-14.4-2.3-4.3-1.6-7.9-3.6-10.8-6.2l3.8-6.5z" fill="white"/>
  <!-- P glyph (Georgia-style serif) -->
  <path d="M112 148.8V56.5h18.8c6.2 0 11.4.9 15.5 2.6 4.1 1.8 7.2 4.3 9.3 7.7 2.1 3.4 3.2 7.5 3.2 12.3 0 4.8-1.1 9-3.2 12.4-2.1 3.4-5.2 6-9.3 7.8-4.1 1.8-9.3 2.7-15.5 2.7H119.5v47h-7.5zM119.5 95.5h11c5 0 9.1-.6 12.3-1.9 3.2-1.3 5.6-3.2 7.1-5.7 1.5-2.5 2.3-5.6 2.3-9.2 0-3.6-.8-6.7-2.3-9.2-1.5-2.5-3.9-4.4-7.1-5.7-3.2-1.3-7.3-1.9-12.3-1.9h-11v33.6z" fill="white"/>
</svg>
