<svg viewBox="0 0 24 24" fill="none" xmlns="http://www.w3.org/2000/svg">
  <path d="M12 2L13.5 8.5L12 10L10.5 8.5L12 2Z" fill="#FFC220"/>
  <path d="M12 22L13.5 15.5L12 14L10.5 15.5L12 22Z" fill="#FFC220"/>
  <path d="M2.34 7L8.67 9.25L9.5 10.75L7.75 10.75L2.34 7Z" fill="#FFC220"/>
  <path d="M21.66 7L15.33 9.25L14.5 10.75L16.25 10.75L21.66 7Z" fill="#FFC220"/>
  <path d="M2.34 17L8.67 14.75L9.5 13.25L7.75 13.25L2.34 17Z" fill="#FFC220"/>
  <path d="M21.66 17L15.33 14.75L14.5 13.25L16.25 13.25L21.66 17Z" fill="#FFC220"/>
</svg>
